<?xml version="1.0" encoding="UTF-8"?>
<svg xmlns="http://www.w3.org/2000/svg" version="1.1" viewBox="0 0 256 256">
  <!-- Generator: Adobe Illustrator 28.7.1, SVG Export Plug-In . SVG Version: 1.2.0 Build 142)  -->
  <g>
    <g id="grAtHome">
      <path id="ahp-icon-01" d="M128,229.8l14.5-8.4v22.7l-14.5,8.4-14.5-8.4v-22.7l14.5,8.4ZM83.5,187.6l-15.6-9h0l-1.2-.7-2.8-1.6-14.3,8.2-14.5,8.4v5.9l14.5,8.4,19.6,11.3,14.5,8.4v-22.7l-14.5-8.3,14.3-8.3ZM113.5,147.6v22.6l14.5-8.4,14.5,8.4v-22.6l-14.5-8.4-14.5,8.4ZM192.2,176.2l-2.8,1.6-1.1.6-15.8,9.1,14.3,8.3-14.5,8.3v22.7l14.5-8.4,19.6-11.3,14.5-8.4v-5.9l-14.5-8.4-14.3-8.2ZM226.1,82.8v45.3l-19.6,11.3h0l-19.6,11.3-19.4,11.2h-.2c0,.1,0-.1,0-.1v-45.1l-19.6,11.3v90.3h0v22.9l19.6-11.3v-45.3l19.6-11.3h0l19.6-11.3,19.6-11.3v45.3l19.6-11.3h0v-113.2l-19.6,11.3ZM88.8,116.8l19.6,11.3v90.3h0v22.9l-19.6-11.3v-45.3l-19.6-11.3h0l-19.6-11.3-19.6-11.3v45.3l-19.6-11.3h0v-113.2l19.6,11.3,19.6,11.3h0s19.6,11.3,19.6,11.3l19.6,11.3h0ZM88.8,161.9v-22.4l-19.6-11.3-19.6-11.3h0l-19.6-11.3v22.6l19.6,11.3h0l19.6,11.3,19.4,11.2h.2c0,.1,0-.1,0-.1ZM128,116.8l-19.6-11.3-19.6-11.3-19.6-11.3-19.6-11.3-19.6-11.3,19.6-11.3,19.6-11.3h0l19.6-11.3,19.6-11.3h0s0,0,0,0l19.6-11.3,19.6,11.3h0s19.6,11.3,19.6,11.3l19.6,11.3h0l19.6,11.3,19.6,11.3-19.6,11.3-19.6,11.3-19.6,11.3-19.6,11.3-19.6,11.3ZM108.4,82.8l19.6,11.3,19.6-11.3h0s0,0,0,0l19.6-11.3,19.6-11.3-19.6-11.3-19.6-11.3-19.6-11.3-19.6,11.3-19.6,11.3-19.6,11.3,19.6,11.3,19.6,11.3h0s0,0,0,0Z"/>
    </g>
  </g>
</svg>